<svg width="80" height="80" fill="none" xmlns="http://www.w3.org/2000/svg"><path d="M25.55 16.05 14.914 28.496V65.18L25.55 52.747V16.05z" fill="url(#a)"/><path d="M51.242 30.184a17.6 17.6 0 0 0-1.076-.29L62.842 14H38.7l-7.804 9.11h21.059L40.57 37.437c6.23.201 11.222 5.335 11.222 11.644 0 1.02-.131 2.008-.375 2.951 4.43-1.612 7.604-5.758 7.628-10.902.02-5.08-3.282-9.38-7.803-10.945z" fill="url(#b)"/><path d="M51.44 52.093c-1.27 5.01-5.789 8.711-11.172 8.711-5.106 0-9.433-3.333-10.95-7.949l7.191-8.28c1.44 4.747 5.833 8.202 11.028 8.202 1.372 0 2.685-.241 3.904-.684z" fill="url(#c)"/><path d="M63.902 47.31c0 9.851-7.948 17.834-17.75 17.834-7.864 0-14.535-5.14-16.865-12.257l.03-.033c1.514 4.619 5.843 7.949 10.949 7.949 5.38 0 9.9-3.702 11.173-8.71a11.58 11.58 0 0 0 7.627-10.904c0-5.073-3.262-9.34-7.785-10.94 7.294 2.217 12.62 9.008 12.62 17.06z" fill="url(#d)"/><defs><linearGradient id="a" x1="20.232" y1="7.764" x2="20.232" y2="61.447" gradientUnits="userSpaceOnUse"><stop stop-color="#FF4F84"/><stop offset=".623" stop-color="#FF9A8E"/><stop offset="1" stop-color="#FFCA94"/></linearGradient><linearGradient id="b" x1="57.533" y1="49.938" x2="44.556" y2="11.997" gradientUnits="userSpaceOnUse"><stop offset="0" stop-color="#FF87ED"/><stop offset=".085" stop-color="#FF8ADF"/><stop offset=".245" stop-color="#FF91BB"/><stop offset=".461" stop-color="#FF9C80"/><stop offset=".592" stop-color="#FFA459"/><stop offset="1" stop-color="#FFE254"/></linearGradient><linearGradient id="c" x1="29.318" y1="52.689" x2="53.2" y2="52.689" gradientUnits="userSpaceOnUse"><stop stop-color="#B9F"/><stop offset=".675" stop-color="#59A1FF"/><stop offset="1" stop-color="#2EA4FF"/></linearGradient><linearGradient id="d" x1="60.67" y1="29.786" x2="37.247" y2="67.563" gradientUnits="userSpaceOnUse"><stop stop-color="#63B8F0"/><stop offset=".025" stop-color="#73ADF0"/><stop offset=".096" stop-color="#9993F0"/><stop offset=".165" stop-color="#B87EF0"/><stop offset=".234" stop-color="#CE6FF0"/><stop offset=".299" stop-color="#DB66F0"/><stop offset=".359" stop-color="#DF63F0"/><stop offset=".528" stop-color="#E66DE0"/><stop offset=".854" stop-color="#F786B7"/><stop offset="1" stop-color="#FF93A3"/></linearGradient></defs></svg>