<svg width="468" height="147" fill="none" xmlns="http://www.w3.org/2000/svg"><path d="M65.664 69.04v8.64H7.056v-8.64h58.608zM5.112 125.704c4.272-3.264 7.344-6.168 9.216-8.712A20.383 20.383 0 0 0 18 108.568c.576-3.072.864-7.608.864-13.608V72.856h9.504v21.168c0 7.248-.384 12.888-1.152 16.92-.768 4.032-2.256 7.656-4.464 10.872-2.16 3.168-5.592 6.84-10.296 11.016l-7.344-7.128zm49.752-52.56v58.176H45.36V73.144h9.504zm13.464 21.168v8.928H3.888v-8.928h64.44zm40.752 25.992h24.336v7.992H109.08v-7.992zm-32.832-42.48h25.488v8.424c-.816 8.256-1.92 14.88-3.312 19.872-1.392 4.944-3.384 9.336-5.976 13.176s-6.432 8.28-11.52 13.32l-5.904-5.832c4.992-4.608 8.664-8.688 11.016-12.24 2.4-3.552 4.056-7.296 4.968-11.232.96-3.936 1.824-9.624 2.592-17.064H76.248v-8.424zm.216 30.528c3.264-12.816 5.424-26.736 6.48-41.76l8.136.504c-.624 7.392-1.392 14.184-2.304 20.376-.912 6.144-2.016 11.952-3.312 17.424a67.561 67.561 0 0 1 2.664 2.304c1.056.864 2.208 1.824 3.456 2.88a674.044 674.044 0 0 1 11.952 10.728l-5.184 7.056a158.823 158.823 0 0 0-4.824-4.608 582.555 582.555 0 0 0-5.328-4.968 205.104 205.104 0 0 0-5.904-5.112 123.702 123.702 0 0 0-5.832-4.824zm25.488-21.024c2.496-2.64 4.944-5.952 7.344-9.936 2.448-4.032 4.512-8.04 6.192-12.024l8.64 2.592c-.912 2.016-2.136 4.296-3.672 6.84a182.94 182.94 0 0 1-5.184 8.064 320.068 320.068 0 0 1-2.52 3.744l21.096-1.368 1.584 8.136-31.608 1.8-1.872-7.848zM129.6 73.576c1.344 2.016 3.168 5.064 5.472 9.144 2.352 4.08 4.44 7.776 6.264 11.088l-7.488 3.96c-1.296-2.688-3.096-6.12-5.4-10.296-2.256-4.176-4.152-7.608-5.688-10.296l6.84-3.6zm-24.912 27.216h32.328v31.536h-8.496v-23.544h-15.48v23.472h-8.352v-31.464zm51.336 4.464V93.304h11.952v11.952h-11.952zm47.16-32.4h43.92v7.92h-43.92v-7.92zm1.656 18.864c2.256-3.36 4.488-7.416 6.696-12.168a153.347 153.347 0 0 0 5.904-14.184l8.712.936c-1.344 3.984-3.192 8.544-5.544 13.68-2.352 5.136-4.368 9.024-6.048 11.664h30.456v7.848H204.84V91.72zm17.64-8.136h8.856v36.72h-8.856v-36.72zm-20.16 22.32h45.144v8.064H202.32v-8.064zm-18.936 16.2 7.272-6.696V97.84H183.6v-8.856h15.912v26.784c1.056 1.536 2.328 2.784 3.816 3.744 1.488.912 3.288 1.608 5.4 2.088 2.112.432 4.656.648 7.632.648h32.184l-1.8 8.64h-30.96c-3.696 0-6.768-.216-9.216-.648-2.4-.384-4.536-1.104-6.408-2.16-1.824-1.008-3.576-2.448-5.256-4.32l-7.632 8.136-3.888-9.792zm9.144-56.304c1.152 1.488 2.64 3.528 4.464 6.12a237.355 237.355 0 0 1 4.752 6.984l-7.2 5.472c-.912-1.632-2.28-3.816-4.104-6.552a246.402 246.402 0 0 0-4.824-7.128l6.912-4.896zm64.224 11.592h19.44v8.136h-19.44v-8.136zm19.656 23.832h43.56v7.344h-43.56v-7.344zm.288-13.896h43.2v7.56h-43.2v-7.56zm2.016-15.48h39.312v7.416h-39.312v-7.416zm-23.472 29.376c2.736-.768 6.072-1.896 10.008-3.384 3.984-1.488 7.488-2.904 10.512-4.248l.072 4.464v5.184a324.69 324.69 0 0 1-6.624 2.376c-2.304.816-4.656 1.68-7.056 2.592-2.352.864-4.224 1.584-5.616 2.16l-1.296-9.144zm4.176 22.104c1.104 0 1.896-.072 2.376-.216.48-.192.792-.48.936-.864.144-.384.216-1.008.216-1.872v-53.28h8.208V123.4c0 2.256-.264 3.96-.792 5.112-.528 1.152-1.44 1.944-2.736 2.376-1.248.48-3.096.72-5.544.72h-4.896l-1.512-8.28h3.744zm14.76 1.08c7.824-1.488 13.68-3 17.568-4.536 3.936-1.584 6.792-3.432 8.568-5.544 1.824-2.112 3.528-5.184 5.112-9.216l8.784.216c-1.968 5.472-4.2 9.792-6.696 12.96-2.448 3.12-6 5.808-10.656 8.064-4.656 2.208-11.256 4.224-19.8 6.048l-2.88-7.992zm5.544-8.784c1.824-2.976 3.576-6.288 5.256-9.936 1.68-3.648 3.072-7.08 4.176-10.296l8.64 1.512c-.24.624-.504 1.272-.792 1.944l-.864 1.872c-2.016 4.896-3.816 8.664-5.4 11.304 3.264 1.248 7.632 3.144 13.104 5.688a456.137 456.137 0 0 1 16.056 7.632l-3.888 7.344c-6.432-3.504-12.552-6.624-18.36-9.36a264.89 264.89 0 0 0-17.928-7.704zm21.672-25.92c1.2-3.792 2.304-8.064 3.312-12.816l7.992.864c-.384 1.728-.96 4.008-1.728 6.84a238.45 238.45 0 0 1-1.944 7.128l-7.632-2.016zm-9.072-11.88c.816 3.312 1.608 6.96 2.376 10.944l-7.632 1.224a72.076 72.076 0 0 0-.72-3.312c-.24-1.2-.504-2.448-.792-3.744l-.936-4.68 7.704-.432zm9.864-12.384c.48 1.344 1.008 3 1.584 4.968a882.274 882.274 0 0 1 1.584 5.04l-10.008.72a94.06 94.06 0 0 0-1.44-4.68 981.91 981.91 0 0 1-1.44-4.752l9.72-1.296zm89.424 3.96v8.856H328.68V69.4h62.928zm-6.912 18.936c-.144 2.88-.384 6.768-.72 11.664-.336 4.848-.648 9.48-.936 13.896l-.216 3.24c-.288 3.552-.912 6.264-1.872 8.136-.912 1.872-2.352 3.168-4.32 3.888-1.92.768-4.632 1.152-8.136 1.152h-10.944l-1.8-8.856h9.864c2.208 0 3.816-.168 4.824-.504 1.056-.336 1.8-1.008 2.232-2.016.48-1.008.816-2.616 1.008-4.824l.36-5.04c.576-6.768.888-10.728.936-11.88h-25.488v-8.856h35.208zm-57.888 37.44c4.8-3.888 8.376-7.512 10.728-10.872 2.4-3.408 4.08-7.08 5.04-11.016s1.704-9.288 2.232-16.056c.24-3.216.432-6.912.576-11.088a34.74 34.74 0 0 0 .072-2.16v-1.8h9.504a278.765 278.765 0 0 1-.72 15.12c-.48 7.296-1.32 13.392-2.52 18.288-1.152 4.848-3.12 9.384-5.904 13.608-2.736 4.224-6.672 8.472-11.808 12.744l-7.2-6.768zm84.096-59.4h8.28v65.88h-8.28v-65.88zm-11.736 39.528c.912-.24 2.52-.816 4.824-1.728s4.776-1.896 7.416-2.952c7.104-2.88 11.232-4.584 12.384-5.112l.504 5.472.36 3.528c-1.104.528-2.736 1.248-4.896 2.16-2.16.864-4.536 1.872-7.128 3.024a1594.722 1594.722 0 0 0-6.768 2.88 576.298 576.298 0 0 0-4.392 1.944l-2.304-9.216zm5.04-26.28h19.296v8.28h-19.296v-8.28zm15.552 10.152c2.64-3.12 5.016-6.768 7.128-10.944a71.027 71.027 0 0 0 5.04-12.96l7.92 1.944c-1.68 5.088-3.648 9.816-5.904 14.184-2.208 4.368-4.896 8.688-8.064 12.96l-6.12-5.184zm42.912-14.112c-.912 25.392-1.488 40.128-1.728 44.208-.24 3.744-1.224 6.432-2.952 8.064-1.68 1.632-4.344 2.448-7.992 2.448h-8.208l-1.512-8.352h6.984c1.584 0 2.76-.144 3.528-.432.768-.336 1.32-.912 1.656-1.728.336-.816.528-2.04.576-3.672.288-3.312.696-12 1.224-26.064.096-1.392.144-2.616.144-3.672a84.76 84.76 0 0 1 .144-2.52H429.84v-8.28h32.832zm-41.976 33.624c2.928-2.64 5.4-5.376 7.416-8.208a42.48 42.48 0 0 0 5.112-9.288c1.392-3.36 2.424-7.104 3.096-11.232l5.76.72c-.48 5.28-1.344 9.864-2.592 13.752-1.2 3.84-2.832 7.344-4.896 10.512-2.016 3.12-4.68 6.384-7.992 9.792l-5.904-6.048zm3.096 15.408c4.752-4.032 8.616-8.208 11.592-12.528 2.976-4.32 5.256-8.928 6.84-13.824 1.632-4.944 2.904-10.584 3.816-16.92l5.76.216c-.672 7.92-1.704 14.592-3.096 20.016a52.268 52.268 0 0 1-6.48 15.264c-2.928 4.704-7.056 9.48-12.384 14.328l-6.048-6.552zm-24.696-27.648c.864-4.032 1.584-8.304 2.16-12.816a163.868 163.868 0 0 0 1.296-13.032l6.12.504c-.192 2.544-.336 4.44-.432 5.688-.432 4.56-.84 8.472-1.224 11.736a99.256 99.256 0 0 1-1.368 9.144l-6.552-1.224z" fill="#fff"/><path fill-rule="evenodd" clip-rule="evenodd" d="M232.718.303h-5.437v27.072h5.437V.303zm6.061 0v15.574c0 7.004 4.701 12.123 12.229 12.123s11.916-5.119 11.916-12.123V.303h-5.437v15.468c0 3.864-1.985 6.898-6.479 6.898-4.495 0-6.692-3.24-6.692-6.898V.303h-5.537zm30.412 0h5.437v27.072h-5.437V.303zm-61.665 19.233 7.74-8.047v15.887h5.43V.304h-1.46l-12.441 12.022L194.461.304H193v27.072h5.437V11.489l7.94 8.047h1.149z" fill="url(#a)"/><defs><linearGradient id="a" x1="274.731" y1="13.938" x2="193" y2="13.938" gradientUnits="userSpaceOnUse"><stop stop-color="#46A6FF"/><stop offset=".494" stop-color="#A277FF"/><stop offset=".494" stop-color="#8A53FF"/><stop offset="1" stop-color="#F3ACFF"/></linearGradient></defs></svg>