<svg width="80" height="80" fill="none" xmlns="http://www.w3.org/2000/svg"><path d="M17 25.8c0-.857 0-1.439.038-1.889.035-.438.1-.663.18-.819a2 2 0 0 1 .874-.874c.156-.08.38-.145.819-.18C19.361 22 19.943 22 20.8 22h38.4c.857 0 1.439 0 1.889.038.438.035.663.1.819.18a2 2 0 0 1 .874.874c.08.156.145.38.18.819.037.45.038 1.032.038 1.889v28.4c0 .857 0 1.439-.038 1.889-.035.438-.1.663-.18.819a2 2 0 0 1-.874.874c-.156.08-.38.145-.819.18-.45.037-1.032.038-1.889.038H20.8c-.857 0-1.439 0-1.889-.038-.438-.035-.663-.1-.819-.18a2 2 0 0 1-.874-.874c-.08-.156-.145-.38-.18-.819C17 55.639 17 55.057 17 54.2V25.8zM16 47h48" stroke="#999" stroke-width="2"/><rect x="38.5" y="26" width="3" height="3" rx="1.5" fill="#999"/></svg>