<svg width="80" height="80" fill="none" xmlns="http://www.w3.org/2000/svg"><rect x="51" y="27" width="26" height="36" rx="2" stroke="#999" stroke-width="2"/><rect x="3" y="41" width="14" height="22" rx="2" stroke="#999" stroke-width="2"/><path fill-rule="evenodd" clip-rule="evenodd" d="M67.2 18H12.8c-.873 0-1.408.002-1.808.034a2.578 2.578 0 0 0-.367.05.59.59 0 0 0-.079.025 1 1 0 0 0-.443.453.59.59 0 0 0-.018.063 2.578 2.578 0 0 0-.05.367c-.033.4-.035.935-.035 1.808V42H8V20.8c0-1.68 0-2.52.327-3.162a3 3 0 0 1 1.311-1.311C10.28 16 11.12 16 12.8 16h54.4c1.68 0 2.52 0 3.162.327a3 3 0 0 1 1.311 1.311C72 18.28 72 19.12 72 20.8V28h-2v-7.2c0-.873-.002-1.408-.034-1.808a2.578 2.578 0 0 0-.05-.367.59.59 0 0 0-.019-.063l-.006-.016a1 1 0 0 0-.453-.443.59.59 0 0 0-.063-.018 2.578 2.578 0 0 0-.368-.05c-.4-.033-.934-.035-1.807-.035zM16 62h36v-2H16v2z" fill="#999"/></svg>