<svg width="1064" height="160" fill="none" xmlns="http://www.w3.org/2000/svg"><path fill-rule="evenodd" clip-rule="evenodd" d="m536.748 67.162 26.64-30.267h-.066V19.224h-70.061v20.408h41.179l-29.574 34.09 8.837 13.65c16.287-8.473 30.628 1.583 30.628 15.067 0 12.1-9.495 18.859-18.496 18.859-9.858 0-16.089-7.451-19.188-16.782l-18.694 6.759c6.396 20.573 21.431 30.959 38.74 30.959 21.463 0 39.102-17.672 39.102-38.245 0-19.518-11.737-33.53-29.047-36.827zM71.016 105.405l34.619-36.036v71.116h24.331V19.321h-6.528L67.752 73.127 12.561 19.322H6v121.164h24.332V69.369l35.541 36.036h5.143zm112.755-86.082h-24.332v121.164h24.332V19.323zm27.138 0v69.698c0 31.355 21.035 54.269 54.73 54.269 33.695 0 53.345-22.914 53.345-54.269V19.323h-24.332V88.56c0 17.309-8.902 30.859-29.013 30.859-20.112 0-29.937-14.473-29.937-30.86V19.324h-24.793zm136.125 0h24.332v121.164h-24.332V19.323zm119.652.098V140.52h-21.958v-98.25H425.21V19.421h41.476z" fill="#fff"/><path d="M620 19v120.96h9.28v-48.8h25.92c28.32 0 44.16-12.8 44.16-36 0-23.04-16-36.16-44.8-36.16H620zm9.28 63.52V27.8h24.32c23.36 0 36.32 9.76 36.32 27.36s-12.96 27.36-36.32 27.36h-24.32zM724.871 139.96V90.2c0-15.52 10.88-28.48 27.52-28.48 13.76 0 23.36 10.72 23.36 27.52v50.72h8.8V87.8c0-21.44-11.52-34.24-30.24-34.24-12.32 0-23.52 6.88-28.8 17.6h-.64V19h-8.8v120.96h8.8zM841.074 142.2c22.56 0 37.6-17.76 37.6-44.32s-15.04-44.32-37.6-44.32c-22.4 0-37.44 17.76-37.44 44.32s15.04 44.32 37.44 44.32zm0-8.32c-16.96 0-28.48-14.4-28.48-36s11.52-36 28.48-36c17.12 0 28.64 14.4 28.64 36s-11.52 36-28.64 36zM907.527 139.96V90.2c0-15.52 10.881-28.48 27.521-28.48 13.76 0 23.36 10.72 23.36 27.52v50.72h8.8V87.8c0-21.44-11.52-34.24-30.241-34.24-12.32 0-23.519 6.88-28.799 17.6h-.641V55.8h-8.799v84.16h8.799zM1059.57 92.6c0-23.36-14.08-39.04-35.68-39.04-22.88 0-37.6 17.6-37.6 44.48 0 26.4 15.2 43.84 38.88 43.84 14.4 0 26.08-6.88 32.16-17.6l-6.88-4.64c-5.28 8.96-15.2 14.08-25.28 14.08-17.28 0-28.96-13.12-29.92-33.12h63.52c.48-2.56.8-5.44.8-8zm-64-.16c1.76-18.72 12.8-30.72 28.32-30.72 15.84 0 26.56 12.48 26.56 30.72h-54.88z" fill="#fff"/></svg>