<svg width="80" height="80" fill="none" xmlns="http://www.w3.org/2000/svg"><path d="M33.814 9.298 15.39 19.934A8.785 8.785 0 0 0 11 27.541v14.668l21.715-12.536a8.785 8.785 0 0 0 4.39-7.607V11.198c.003-1.689-1.827-2.746-3.291-1.9z" fill="url(#a)"/><path d="M64.107 19.934 45.687 9.298c-1.463-.846-3.294.21-3.294 1.903v10.865a8.785 8.785 0 0 0 4.39 7.607l21.715 12.536V27.541a8.773 8.773 0 0 0-4.39-7.607z" fill="url(#b)"/><path d="M33.814 9.298 15.39 19.934A8.785 8.785 0 0 0 11 27.541v14.668l21.715-12.536a8.785 8.785 0 0 0 4.39-7.607V11.198c.003-1.689-1.827-2.746-3.291-1.9z" fill="url(#c)"/><path d="M64.107 19.934 45.687 9.298c-1.463-.846-3.294.21-3.294 1.903v10.865a8.785 8.785 0 0 0 4.39 7.607l21.715 12.536V27.541a8.773 8.773 0 0 0-4.39-7.607z" fill="url(#d)"/><path d="m15.942 19.616-.548.317A8.79 8.79 0 0 0 11 27.543v23.361a8.786 8.786 0 0 0 4.39 7.607l18.421 10.636c1.464.846 3.294-.21 3.294-1.903V42.617a8.785 8.785 0 0 0-4.39-7.606s-12.395-7.159-16.776-9.685c-2.193-1.27-2.193-4.442.003-5.71z" fill="url(#e)"/><path d="m64.107 19.935-.548-.317c2.196 1.268 2.196 4.436 0 5.707-4.378 2.53-16.776 9.684-16.776 9.684a8.785 8.785 0 0 0-4.39 7.607v24.627c0 1.69 1.83 2.746 3.294 1.903l18.42-10.636a8.785 8.785 0 0 0 4.391-7.607V27.538a8.78 8.78 0 0 0-4.39-7.603z" fill="url(#f)"/><defs><linearGradient id="a" x1="30.308" y1="32.503" x2="16.353" y2="18.548" gradientUnits="userSpaceOnUse"><stop stop-color="#008CFF" stop-opacity=".3"/><stop offset="1" stop-color="#4587FF"/></linearGradient><linearGradient id="b" x1="49.191" y1="32.503" x2="63.146" y2="18.548" gradientUnits="userSpaceOnUse"><stop stop-color="#008CFF" stop-opacity=".3"/><stop offset="1" stop-color="#4587FF"/></linearGradient><linearGradient id="c" x1="30.308" y1="32.503" x2="16.353" y2="18.548" gradientUnits="userSpaceOnUse"><stop stop-color="#008CFF" stop-opacity=".3"/><stop offset="1" stop-color="#4587FF"/></linearGradient><linearGradient id="d" x1="49.191" y1="32.503" x2="63.146" y2="18.548" gradientUnits="userSpaceOnUse"><stop stop-color="#008CFF" stop-opacity=".3"/><stop offset="1" stop-color="#4587FF"/></linearGradient><linearGradient id="e" x1="41.278" y1="63.982" x2="6.099" y2="28.803" gradientUnits="userSpaceOnUse"><stop stop-color="#0DF"/><stop offset="1" stop-color="#4587FF"/></linearGradient><linearGradient id="f" x1="38.221" y1="63.981" x2="73.4" y2="28.802" gradientUnits="userSpaceOnUse"><stop stop-color="#36E4FF"/><stop offset="1" stop-color="#4587FF"/></linearGradient></defs></svg>