<svg width="80" height="80" fill="none" xmlns="http://www.w3.org/2000/svg"><path fill-rule="evenodd" clip-rule="evenodd" d="M45.2 16H34.8c-.873 0-1.408.002-1.807.034a2.578 2.578 0 0 0-.368.05.59.59 0 0 0-.079.025 1 1 0 0 0-.437.437s-.003.005-.006.016a.59.59 0 0 0-.018.063 2.578 2.578 0 0 0-.05.367c-.033.4-.035.935-.035 1.808v5.071a17.98 17.98 0 0 0-2 1.16V18.8c0-1.68 0-2.52.327-3.162a3 3 0 0 1 1.311-1.311C32.28 14 33.12 14 34.8 14h10.4c1.68 0 2.52 0 3.162.327a3 3 0 0 1 1.311 1.311C50 16.28 50 17.12 50 18.8v6.231a17.98 17.98 0 0 0-2-1.16V18.8c0-.873-.002-1.408-.034-1.808a2.578 2.578 0 0 0-.05-.367.59.59 0 0 0-.019-.063l-.006-.016a1 1 0 0 0-.453-.443.59.59 0 0 0-.063-.018 2.578 2.578 0 0 0-.367-.05c-.4-.033-.935-.035-1.808-.035zM32 56.129V61.2c0 .873.002 1.408.034 1.807.016.187.035.3.05.368a.59.59 0 0 0 .025.079 1 1 0 0 0 .437.437s.005.003.016.006c.01.004.03.01.063.018.069.016.181.035.367.05.4.033.935.035 1.808.035h10.4c.873 0 1.408-.002 1.807-.034.187-.016.3-.035.368-.05a.59.59 0 0 0 .074-.023l.005-.002a1 1 0 0 0 .437-.437s.003-.005.006-.016a.59.59 0 0 0 .018-.063c.016-.069.035-.181.05-.367.033-.4.035-.935.035-1.808v-5.071a17.98 17.98 0 0 0 2-1.16V61.2c0 1.68 0 2.52-.327 3.162a3 3 0 0 1-1.311 1.311C47.72 66 46.88 66 45.2 66H34.8c-1.68 0-2.52 0-3.162-.327a3 3 0 0 1-1.311-1.311C30 63.72 30 62.88 30 61.2v-6.231a17.98 17.98 0 0 0 2 1.16z" fill="#999"/><circle cx="40" cy="40" r="17" stroke="#999" stroke-width="2"/></svg>